# xmcd
#
# Track frame offsets:
#	150
#	17207
#	33472
#	47342
#	65445
#	87857
#	106742
#	120302
#	137680
#	160992
#
# Disc length: 2678 seconds
#
# Revision: 0
# Processed by: cddbd v1.5.1PL0 Copyright (c) Steve Scherf et al.
# Submitted via: dBpowerAMP V4.0
#
DISCID=750a740a
DTITLE=Travis Tritt - T-R-O-U-B-L-E 
DYEAR=1992
DGENRE=Country
TTITLE0=Looking Out For Number One
TTITLE1=Can I Trust You With My Heart
TTITLE2=T-R-O-U-B-L-E
TTITLE3=When I Touch You
TTITLE4=Lord Have Mercy On The Working Man
TTITLE5=I Wish I Could Go Back Home
TTITLE6=A Hundred Years From Now
TTITLE7=Blue Collar Man
TTITLE8=Worth Every Mile
TTITLE9=Leave My Girl Alone
EXTD=
EXTT0=
EXTT1=
EXTT2=
EXTT3=
EXTT4=
EXTT5=
EXTT6=
EXTT7=
EXTT8=
EXTT9=
PLAYORDER=
